<?xml version="1.0" ?><svg data-name="Layer 1" id="Layer_1" viewBox="0 0 128 128" xmlns="http://www.w3.org/2000/svg"><title/><path fill="white" d="M68.56,52.68c-2.82-.7-5.39-1.31-5.39-1.31l-2.1,8.73s2.89.74,5.59,1.35a5.07,5.07,0,0,0,6.26-3.77C73.4,55.32,71.25,53.34,68.56,52.68Z"/><path fill="white" d="M64,23.75A40.25,40.25,0,1,0,104.24,64,40.24,40.24,0,0,0,64,23.75ZM80.27,70.17c1.65,5.56-3.42,14.14-13.66,11.68l-2-.48-1.78,7.37-4.33-1,1.77-7.37-3.86-.93-1.77,7.37-4.34-1,1.78-7.37-9.52-2.29,2.36-4.93,3.73.9A1.43,1.43,0,0,0,50.4,71l5-20.82a1.29,1.29,0,0,0-.95-1.56l-4-1,1.17-4.85,8.55,2.06,1.7-7,4.33,1.05-1.69,7,3.86.93,1.69-7,4.34,1-1.7,7c6,2.16,8.41,5.56,8.51,10a6.59,6.59,0,0,1-5.53,7S79.26,66.76,80.27,70.17Z"/><path fill="white" d="M66.66,66.15l-6.75-1.64-2.23,9.68s3.57.92,6.36,1.54c3.78.83,6.66-.3,7.37-3.41S69.52,66.83,66.66,66.15Z"/><path fill="white" d="M99.23,90.47a44,44,0,0,1-29.9,17.26l-11.85,6.84A51.86,51.86,0,0,0,64,115a51,51,0,0,0,47.08-31.38Z"/><path fill="white" d="M106.65,52.9a44.53,44.53,0,0,1,.95,4.76L114,54c-.32-1.57-.71-3.12-1.16-4.64Z"/><path fill="white" d="M103.13,43.75a44.53,44.53,0,0,1,2,4.39l6.07-3.51q-.92-2.24-2-4.36Z"/><path fill="white" d="M80.78,23.25a45.13,45.13,0,0,1,5.08,2.5l6.8-3.93A49.39,49.39,0,0,0,88.08,19Z"/><path fill="white" d="M20.34,58.15,13,62.36c0,.55,0,1.09,0,1.64,0,1.25.06,2.49.15,3.72l6.79-3.92A43.94,43.94,0,0,1,20.34,58.15Z"/><path fill="white" d="M66.86,20a44.9,44.9,0,0,1,7.67,1.17l8.11-4.68a50.26,50.26,0,0,0-6.23-2Z"/><path fill="white" d="M108.06,64a46,46,0,0,1-.27,4.86L115,64.7c0-.23,0-.46,0-.7,0-1.63-.08-3.24-.23-4.83L108,63.06C108,63.37,108.06,63.68,108.06,64Z"/><path fill="white" d="M33.08,95.38,26.88,99c1.1,1.16,2.24,2.27,3.44,3.32l6.4-3.69A46.39,46.39,0,0,1,33.08,95.38Z"/><path fill="white" d="M94.21,31.94l6.24-3.6Q98.74,26.6,96.88,25l-6.44,3.72A44.12,44.12,0,0,1,94.21,31.94Z"/><path fill="white" d="M97.67,35.59a43.66,43.66,0,0,1,3,3.94l6-3.47c-.91-1.38-1.87-2.71-2.9-4Z"/><path fill="white" d="M114.56,70.6l-7.93,4.58a43,43,0,0,1-2.38,6.73l9.17-5.29A50,50,0,0,0,114.56,70.6Z"/><path fill="white" d="M46.31,104.35a43.37,43.37,0,0,1-5.16-2.67l-6.71,3.87a50.37,50.37,0,0,0,4.67,3Z"/><path fill="white" d="M59.38,107.82a43.7,43.7,0,0,1-7-1.32l-8,4.6a50.54,50.54,0,0,0,5.82,2Z"/><path fill="white" d="M30.52,35.38A44,44,0,0,1,56,20.68l12.89-7.44Q66.46,13,64,13A51,51,0,0,0,17.6,42.83Z"/><path fill="white" d="M21.12,74.14a46.32,46.32,0,0,1-.86-4.87L13.81,73a47.36,47.36,0,0,0,1.08,4.75Z"/><path fill="white" d="M13.57,56.41l8.12-4.69a43.91,43.91,0,0,1,2.79-7.21L15,50A50.21,50.21,0,0,0,13.57,56.41Z"/><path fill="white" d="M29.72,91.67a45.06,45.06,0,0,1-2.82-3.91l-6,3.47q1.29,2,2.76,3.94Z"/><path fill="white" d="M24.49,83.5A42.42,42.42,0,0,1,22.55,79l-6.08,3.52a48.69,48.69,0,0,0,2,4.49Z"/></svg>